<svg width="185" height="68" viewBox="0 0 185 68" fill="none" xmlns="http://www.w3.org/2000/svg">
<path d="M28.251 14.5354C24.552 14.5354 21.2928 16.4386 19.4088 19.3105C17.5205 16.4386 14.2656 14.5354 10.5666 14.5354C4.73795 14.5354 0 19.2462 0 25.0372V44.5276C0 45.4706 0.767384 46.2379 1.72015 46.2379C2.6686 46.2379 3.4403 45.4706 3.4403 44.5276V25.0372C3.4403 21.1322 6.63486 17.9517 10.5666 17.9517C14.4984 17.9517 17.6886 21.1279 17.6886 25.0372V44.5276C17.6886 45.4706 18.4603 46.2379 19.4088 46.2379C20.3572 46.2379 21.1289 45.4706 21.1289 44.5276V25.0372C21.1289 21.1322 24.3235 17.9517 28.2553 17.9517C32.187 17.9517 35.3816 21.1279 35.3816 25.0372V44.5276C35.3816 45.4706 36.1533 46.2379 37.1017 46.2379C38.0502 46.2379 38.8219 45.4706 38.8219 44.5276V25.0372C38.8133 19.2462 34.0753 14.5354 28.251 14.5354Z" fill="#283F7F"/>
<path d="M172.679 14.5354H167.863C162.039 14.5354 157.301 19.2462 157.301 25.0372V44.5276C157.301 45.4706 158.072 46.2379 159.021 46.2379C159.969 46.2379 160.741 45.4706 160.741 44.5276V25.0372C160.741 21.1322 163.936 17.9517 167.863 17.9517H172.679C173.627 17.9517 174.399 17.1887 174.399 16.2414C174.399 15.2984 173.627 14.5354 172.679 14.5354Z" fill="#283F7F"/>
<path d="M70.013 17.4202C62.7746 12.4951 52.8547 14.3382 47.9012 21.5351C42.9477 28.7321 44.8015 38.5952 52.0399 43.5203C59.2783 48.4454 69.1982 46.6022 74.1518 39.4053C74.6906 38.6252 74.488 37.5621 73.7034 37.0263C72.9188 36.4948 71.8496 36.692 71.315 37.4721C67.4307 43.1131 59.6577 44.5576 53.9842 40.6955C48.3107 36.8334 46.8579 29.105 50.7379 23.464C54.6223 17.8231 62.3953 16.3786 68.0687 20.2364C70.7201 22.0409 72.5265 24.7328 73.2033 27.7933L53.6048 27.8019C52.6564 27.8062 51.8847 28.5692 51.889 29.5165C51.889 30.4638 52.665 31.2268 53.6134 31.2225L75.1864 31.2096C75.6607 31.2096 76.1176 31.0125 76.441 30.6653C76.7643 30.3181 76.9324 29.8551 76.898 29.3836C76.5617 24.5314 74.0526 20.1678 70.013 17.4202Z" fill="#283F7F"/>
<path d="M112.543 0C111.594 0 110.822 0.762985 110.822 1.71029V30.4723C110.822 37.3091 105.231 42.8686 98.3545 42.8686C91.4782 42.8686 85.8867 37.3091 85.8867 30.4723C85.8867 23.6354 91.4782 18.0759 98.3545 18.0759C100.764 18.0759 103.101 18.7617 105.114 20.0562C105.912 20.5663 106.977 20.3434 107.494 19.5461C108.011 18.7531 107.783 17.6944 106.985 17.1843C104.416 15.5298 101.433 14.6553 98.3588 14.6553C89.5856 14.6553 82.4507 21.7494 82.4507 30.4723C82.4507 39.1909 89.5856 46.2892 98.3588 46.2892C107.132 46.2892 114.267 39.1952 114.267 30.4723V1.71029C114.263 0.762985 113.495 0 112.543 0Z" fill="#283F7F"/>
<path d="M136.163 14.6553C127.39 14.6553 120.255 21.7493 120.255 30.4722C120.255 39.1908 127.39 46.2892 136.163 46.2892C144.936 46.2892 152.071 39.1951 152.071 30.4722C152.071 21.7493 144.932 14.6553 136.163 14.6553ZM136.163 42.8686C129.287 42.8686 123.695 37.3091 123.695 30.4722C123.695 23.6354 129.287 18.0758 136.163 18.0758C143.04 18.0758 148.631 23.6354 148.631 30.4722C148.631 37.3091 143.04 42.8686 136.163 42.8686Z" fill="#283F7F"/>
<path d="M179.137 9.79022V5.31519H181.133C181.534 5.31519 181.84 5.35376 182.047 5.43521C182.254 5.51665 182.422 5.6581 182.547 5.85956C182.672 6.06103 182.737 6.28821 182.737 6.53253C182.737 6.84973 182.633 7.11549 182.426 7.3341C182.219 7.5527 181.9 7.68987 181.469 7.74988C181.624 7.82704 181.745 7.89991 181.827 7.97277C182 8.13137 182.163 8.32855 182.323 8.56859L183.108 9.78594H182.357L181.762 8.85578C181.59 8.58573 181.448 8.37999 181.331 8.23853C181.219 8.09708 181.116 7.99849 181.03 7.93848C180.939 7.88276 180.848 7.8399 180.758 7.81846C180.689 7.8056 180.581 7.79703 180.426 7.79703H179.736V9.78594H179.137V9.79022ZM179.732 7.29123H181.012C181.284 7.29123 181.495 7.26551 181.65 7.20979C181.806 7.15407 181.922 7.06405 182 6.93974C182.077 6.81544 182.12 6.68256 182.12 6.53682C182.12 6.32678 182.043 6.15104 181.887 6.01387C181.732 5.87671 181.487 5.80813 181.155 5.80813H179.732V7.29123Z" fill="#283F7F"/>
<path d="M180.887 11.7149C178.62 11.7149 176.774 9.8803 176.774 7.62564C176.774 5.37097 178.62 3.53638 180.887 3.53638C183.155 3.53638 185 5.37097 185 7.62564C185 9.8803 183.155 11.7149 180.887 11.7149ZM180.887 4.02074C178.887 4.02074 177.262 5.63673 177.262 7.62564C177.262 9.61454 178.887 11.2305 180.887 11.2305C182.888 11.2305 184.513 9.61454 184.513 7.62564C184.513 5.63673 182.888 4.02074 180.887 4.02074Z" fill="#283F7F"/>
<path d="M17.8267 61.1117L16.8222 64.4037H14.6235L18.3656 52.7917H21.0859L24.8798 64.4037H22.5949L21.5386 61.1117H17.8267ZM21.1679 59.5086L20.2496 56.6495C20.0254 55.9423 19.8314 55.1493 19.659 54.4806H19.6245C19.452 55.1536 19.2796 55.9637 19.0726 56.6495L18.1716 59.5086H21.1679Z" fill="#283F7F"/>
<path d="M33.9762 52.1659V62.0376C33.9762 62.8991 34.0107 63.8293 34.0452 64.3994H32.1397L32.0535 63.0706H32.019C31.5146 64.0008 30.4928 64.588 29.2642 64.588C27.2552 64.588 25.66 62.882 25.66 60.2973C25.6428 57.4897 27.4104 55.818 29.4366 55.818C30.5963 55.818 31.4284 56.3023 31.812 56.9196H31.8465V52.1616H33.9762V52.1659ZM31.8465 59.5086C31.8465 59.3371 31.8293 59.1314 31.7948 58.9556C31.6051 58.1283 30.9283 57.4554 29.9583 57.4554C28.5916 57.4554 27.8285 58.6599 27.8285 60.2287C27.8285 61.7632 28.5916 62.882 29.941 62.882C30.8075 62.882 31.5706 62.2948 31.7776 61.3817C31.8293 61.1931 31.8465 60.9874 31.8465 60.7602V59.5086Z" fill="#283F7F"/>
<path d="M37.6193 56.0107L38.9902 60.2672C39.2317 61.0087 39.4041 61.6817 39.5636 62.3675H39.6153C39.7706 61.6774 39.9602 61.0259 40.1887 60.2672L41.5209 56.0107H43.7756L40.5509 64.4036H38.4557L35.3171 56.0107H37.6193Z" fill="#283F7F"/>
<path d="M46.3535 60.7987C46.4053 62.3161 47.5995 62.9719 48.9532 62.9719C49.9404 62.9719 50.6517 62.8347 51.2941 62.5947L51.6045 64.0607C50.8759 64.3521 49.8714 64.5793 48.66 64.5793C45.9224 64.5793 44.3101 62.9076 44.3101 60.34C44.3101 58.0125 45.7327 55.8264 48.4358 55.8264C51.1734 55.8264 52.0744 58.0682 52.0744 59.9114C52.0744 60.31 52.0399 60.6186 52.0054 60.8073H46.3535V60.7987ZM50.0611 59.3156C50.0784 58.5397 49.7335 57.2667 48.3108 57.2667C46.9916 57.2667 46.4398 58.454 46.3535 59.3156H50.0611Z" fill="#283F7F"/>
<path d="M53.786 58.7156C53.786 57.5797 53.7688 56.7696 53.717 56.0109H55.5708L55.6398 57.614H55.7088C56.127 56.4267 57.1142 55.8223 58.0153 55.8223C58.2222 55.8223 58.3429 55.8394 58.5197 55.8737V57.8712C58.3472 57.8369 58.1575 57.8026 57.8945 57.8026C56.8728 57.8026 56.1787 58.4584 55.989 59.4057C55.9545 59.5943 55.92 59.8172 55.92 60.0615V64.4037H53.7903V58.7156H53.786Z" fill="#283F7F"/>
<path d="M62.8006 53.6147V56.0109H64.8268V57.5968H62.8006V61.3003C62.8006 62.3162 63.0765 62.852 63.8913 62.852C64.2534 62.852 64.5336 62.8006 64.7233 62.7491L64.7578 64.3694C64.4474 64.4894 63.8913 64.5752 63.2144 64.5752C62.4341 64.5752 61.7745 64.318 61.3779 63.885C60.9252 63.4007 60.7183 62.642 60.7183 61.5404V57.5968H59.5068V56.0109H60.7183V54.1163L62.8006 53.6147Z" fill="#283F7F"/>
<path d="M68.7111 53.6662C68.7111 54.3049 68.2412 54.8021 67.4997 54.8021C66.7884 54.8021 66.3228 54.3006 66.3228 53.6662C66.3228 53.0104 66.8099 52.5132 67.5212 52.5132C68.2412 52.5132 68.6939 53.0104 68.7111 53.6662ZM66.4392 56.0109H68.5904V64.4037H66.4392V56.0109Z" fill="#283F7F"/>
<path d="M70.7719 62.4534C71.259 62.7449 72.1773 63.0578 72.9361 63.0578C73.8716 63.0578 74.2898 62.6806 74.2898 62.1276C74.2898 61.5575 73.9449 61.266 72.9016 60.906C71.2547 60.3359 70.5606 59.44 70.5779 58.4584C70.5779 56.9753 71.8065 55.8223 73.7681 55.8223C74.7036 55.8223 75.5184 56.0623 76.0056 56.3238L75.5917 57.824C75.2253 57.6183 74.5527 57.344 73.8069 57.344C73.0438 57.344 72.63 57.704 72.63 58.2227C72.63 58.7585 73.0266 59.0157 74.1044 59.3929C75.6305 59.9458 76.3375 60.7217 76.3591 61.9604C76.3591 63.4778 75.1649 64.5795 72.9274 64.5795C71.9057 64.5795 70.9874 64.3394 70.3623 63.9922L70.7719 62.4534Z" fill="#283F7F"/>
<path d="M80.3727 53.6662C80.3727 54.3049 79.9071 54.8021 79.1613 54.8021C78.45 54.8021 77.9844 54.3006 77.9844 53.6662C77.9844 53.0104 78.4715 52.5132 79.1786 52.5132C79.9071 52.5132 80.3555 53.0104 80.3727 53.6662ZM78.1051 56.0109H80.2564V64.4037H78.1051V56.0109Z" fill="#283F7F"/>
<path d="M82.5414 58.5098C82.5414 57.5453 82.5241 56.7352 82.4724 56.0108H84.3434L84.4469 57.2667H84.4987C84.8608 56.6109 85.7791 55.8179 87.1845 55.8179C88.6589 55.8179 90.1807 56.7652 90.1807 59.4185V64.3993H88.051V59.6628C88.051 58.4583 87.5984 57.5453 86.4387 57.5453C85.5894 57.5453 84.9987 58.1454 84.7746 58.7841C84.7056 58.9727 84.6883 59.2299 84.6883 59.4742V64.4036H82.5371V58.5098H82.5414Z" fill="#283F7F"/>
<path d="M100.165 56.0109C100.131 56.581 100.096 57.2668 100.096 58.4242V63.1778C100.096 64.9353 99.7299 66.1955 98.8504 66.9842C97.9666 67.76 96.7552 68.0001 95.5912 68.0001C94.5177 68.0001 93.3752 67.7772 92.6466 67.3271L93.1166 65.724C93.6554 66.0326 94.5565 66.3626 95.5782 66.3626C96.9664 66.3626 98.0054 65.6382 98.0054 63.8294V63.1049H97.9709C97.4837 63.8465 96.6172 64.3437 95.5092 64.3437C93.414 64.3437 91.9224 62.6206 91.9224 60.2416C91.9224 57.4854 93.7244 55.8137 95.7507 55.8137C97.0311 55.8137 97.7942 56.4353 98.1951 57.1254H98.2296L98.3158 56.0066H100.165V56.0109ZM97.9623 59.3672C97.9623 59.1786 97.945 58.9728 97.8933 58.7971C97.6691 58.0212 97.0613 57.434 96.1602 57.434C94.966 57.434 94.0779 58.467 94.0779 60.173C94.0779 61.6047 94.8065 62.7577 96.1387 62.7577C96.9362 62.7577 97.6303 62.2391 97.8718 61.4804C97.9235 61.2575 97.958 60.9617 97.958 60.7217V59.3672H97.9623Z" fill="#283F7F"/>
<path d="M115.418 63.8679C114.672 64.1423 113.215 64.5238 111.659 64.5238C109.684 64.5238 108.193 64.0222 107.085 62.9721C106.046 61.9905 105.438 60.4559 105.455 58.6985C105.455 55.0293 108.089 52.6675 111.952 52.6675C113.392 52.6675 114.517 52.959 115.056 53.2204L114.586 54.9264C113.944 54.6521 113.168 54.4249 111.935 54.4249C109.439 54.4249 107.688 55.8909 107.688 58.5956C107.688 61.2318 109.318 62.8006 111.745 62.8006C112.508 62.8006 113.077 62.6977 113.358 62.5606V59.6672H111.297V57.9955H115.423V63.8679H115.418Z" fill="#283F7F"/>
<path d="M117.565 58.7156C117.565 57.5797 117.548 56.7696 117.496 56.0109H119.35L119.419 57.614H119.488C119.906 56.4267 120.894 55.8223 121.795 55.8223C122.001 55.8223 122.122 55.8394 122.299 55.8737V57.8712C122.126 57.8369 121.937 57.8026 121.674 57.8026C120.652 57.8026 119.958 58.4584 119.768 59.4057C119.734 59.5943 119.699 59.8172 119.699 60.0615V64.4037H117.57V58.7156H117.565Z" fill="#283F7F"/>
<path d="M131.602 60.1257C131.602 63.2077 129.416 64.5879 127.27 64.5879C124.877 64.5879 123.04 62.9505 123.04 60.2629C123.04 57.5067 124.86 55.8179 127.407 55.8179C129.921 55.8222 131.602 57.5753 131.602 60.1257ZM125.243 60.2115C125.243 61.8317 126.041 63.0534 127.339 63.0534C128.55 63.0534 129.399 61.866 129.399 60.1772C129.399 58.8655 128.809 57.3696 127.356 57.3696C125.851 57.3696 125.243 58.8184 125.243 60.2115Z" fill="#283F7F"/>
<path d="M140.91 61.8833C140.91 62.882 140.945 63.7093 140.979 64.3994H139.108L139.005 63.1221H138.97C138.608 63.7265 137.776 64.588 136.267 64.588C134.724 64.588 133.323 63.675 133.323 60.936V56.0066H135.452V60.5716C135.452 61.969 135.905 62.8649 137.03 62.8649C137.879 62.8649 138.436 62.2605 138.66 61.729C138.729 61.5404 138.78 61.3175 138.78 61.0732V56.0066H140.914V61.8833H140.91Z" fill="#283F7F"/>
<path d="M143.216 58.8012C143.216 57.6996 143.182 56.8038 143.147 56.0108H145.018L145.122 57.301H145.156C145.782 56.3537 146.769 55.8179 148.049 55.8179C149.989 55.8179 151.602 57.4724 151.602 60.0915C151.602 63.122 149.679 64.5879 147.756 64.5879C146.7 64.5879 145.816 64.1421 145.381 63.4692H145.346V67.8113H143.212V58.8012H143.216ZM145.346 60.8844C145.346 61.0902 145.363 61.2831 145.415 61.4717C145.622 62.3333 146.385 62.9548 147.286 62.9548C148.636 62.9548 149.433 61.836 149.433 60.1815C149.433 58.6984 148.705 57.4939 147.338 57.4939C146.454 57.4939 145.639 58.1325 145.432 59.0627C145.381 59.2342 145.346 59.4228 145.346 59.5985V60.8844Z" fill="#283F7F"/>
</svg>
